<svg width="182" height="83" viewBox="0 0 182 83" fill="none" xmlns="http://www.w3.org/2000/svg">
    <path d="M0.212081 74.4238L8.35517 31.9043L19.3697 31.8946L27.523 74.3998L20.2444 74.4062L14.2216 37.5031L13.3843 37.5038L7.29746 74.4176L0.212081 74.4238ZM6.25934 65.8516L6.25511 61.0207L21.8429 61.007L21.8472 65.8379L6.25934 65.8516ZM29.6461 74.398L29.6088 31.8857L40.3657 31.8762C41.5251 31.8752 42.7276 31.9815 43.9731 32.1951C45.2615 32.4087 46.4857 32.7941 47.6456 33.3513C48.8484 33.8656 49.9226 34.5946 50.8682 35.5385C51.8567 36.4824 52.6307 37.6841 53.1902 39.1436C53.7497 40.5602 54.0303 42.2991 54.0321 44.3603C54.0333 45.6915 53.8841 46.9584 53.5846 48.161C53.328 49.3207 52.8565 50.3946 52.1703 51.3829C51.5271 52.3711 50.626 53.2093 49.4672 53.8973C48.3084 54.5854 46.8703 55.1235 45.153 55.5114L45.1535 56.1556C46.7855 56.3259 48.0741 56.7757 49.0195 57.5048C50.0078 58.234 50.7816 59.2424 51.341 60.5302C51.9003 61.775 52.3955 63.342 52.8266 65.231L54.8314 74.3759L47.8105 74.382L46.0637 65.6878C45.8049 64.3569 45.4818 63.1548 45.0943 62.0816C44.7499 61.0083 44.1694 60.1715 43.353 59.571C42.5795 58.9276 41.4412 58.6065 39.9383 58.6078L36.3956 58.6109L36.4094 74.392L29.6461 74.398ZM36.3912 53.6512L39.3542 53.6486C42.0595 53.6462 44.0343 52.9789 45.2784 51.6466C46.5655 50.2713 47.2077 48.1237 47.2051 45.2036C47.2029 42.6271 46.6215 40.7167 45.461 39.4724C44.3434 38.1852 42.4963 37.5427 39.9198 37.5449L36.3771 37.548L36.3912 53.6512ZM82.5537 82.0166C80.7933 82.2758 79.1831 82.449 77.7232 82.5362C76.3062 82.6233 74.975 82.6245 73.7296 82.5397C72.4842 82.4549 71.2603 82.3486 70.0578 82.2208C68.8983 82.093 67.6958 81.9653 66.4504 81.8375C65.2049 81.7098 63.8737 81.6036 62.4565 81.519C61.0394 81.4773 59.4506 81.5216 57.6901 81.652L57.6849 75.7904C58.7585 75.7895 59.832 75.7456 60.9055 75.6588C61.9789 75.5719 63.0309 75.4422 64.0613 75.2695C65.0918 75.0969 66.0792 74.8598 67.0237 74.5584C67.9682 74.2999 68.8697 73.9985 69.7282 73.6542C70.5867 73.267 71.3593 72.8584 72.046 72.4284L72.0454 71.7198C69.6843 72.4948 67.6233 72.7114 65.8623 72.3694C64.1443 71.9844 62.7051 71.1698 61.5446 69.9255C60.384 68.6812 59.4594 67.1361 58.7707 65.2902C58.082 63.4014 57.5864 61.3406 57.2838 59.1079C56.9812 56.8323 56.8289 54.535 56.8269 52.2162C56.8242 49.2102 57.058 46.4403 57.5281 43.9063C57.9982 41.3294 58.7263 39.0958 59.7123 37.2055C60.7412 35.2722 62.0925 33.7681 63.7663 32.693C65.483 31.618 67.5438 31.0794 69.9485 31.0773C72.9974 31.0746 75.5102 31.9313 77.487 33.6472C79.4638 35.3202 80.9475 37.7666 81.938 40.9863C82.9284 44.2061 83.4257 48.1133 83.4297 52.7081C83.4329 56.3152 83.1136 59.4288 82.4717 62.0488C81.8729 64.6688 80.9086 66.8811 79.579 68.6858C78.2923 70.4905 76.6189 71.9949 74.5588 73.1991C72.5416 74.4033 70.1377 75.4145 67.3472 76.2328L67.3477 76.8125C68.679 76.8543 69.8814 76.8962 70.9549 76.9382C72.0715 77.0231 73.1665 77.0436 74.24 76.9997C75.3136 76.9988 76.5159 76.9119 77.8469 76.7389C79.178 76.6089 80.7452 76.3714 82.5484 76.0263L82.5537 82.0166ZM70.2396 69.2093C71.6138 69.2081 72.7512 68.6274 73.652 67.4672C74.5527 66.264 75.2382 64.4599 75.7084 62.0547C76.1787 59.6496 76.4122 56.6434 76.409 53.0363C76.4058 49.3863 76.1455 46.3377 75.6281 43.8904C75.1536 41.4432 74.4434 39.6188 73.4976 38.4172C72.5948 37.2156 71.4563 36.6155 70.0822 36.6167C68.7939 36.6178 67.678 37.22 66.7343 38.4232C65.8336 39.6263 65.1267 41.452 64.6135 43.9001C64.1433 46.3482 63.9098 49.4187 63.9131 53.1117C63.9162 56.6759 64.155 59.6601 64.6295 62.0644C65.1469 64.4687 65.857 66.2717 66.7598 67.4732C67.7056 68.6318 68.8655 69.2105 70.2396 69.2093ZM100.053 75.1735C98.0346 75.1753 96.2952 74.8977 94.8347 74.3407C93.3741 73.7408 92.1496 72.969 91.1611 72.0251C90.1726 71.0813 89.3987 70.0084 88.8394 68.8065C88.2801 67.6046 87.8711 66.3812 87.6124 65.1361C87.3966 63.891 87.2882 62.7102 87.2872 61.5937L87.2611 31.8351L94.0888 31.8291L94.1152 61.8453C94.1166 63.5201 94.3325 64.894 94.7629 65.9672C95.2362 67.0403 95.9025 67.8341 96.7618 68.3487C97.664 68.8202 98.7377 69.0555 99.983 69.0544C101.228 69.0533 102.259 68.8162 103.074 68.3431C103.933 67.87 104.576 67.118 105.005 66.087C105.433 65.0131 105.647 63.5958 105.645 61.8352L105.619 31.8189L112.446 31.813L112.473 61.5716C112.477 66.1234 111.384 69.5382 109.196 71.816C107.051 74.0509 104.003 75.1701 100.053 75.1735ZM117.421 74.3209L117.384 31.8086L124.211 31.8026L124.249 74.3149L117.421 74.3209ZM135.542 74.305L126.358 31.8007L133.443 31.7945L140.239 68.697L140.948 68.6964L147.55 31.7821L154.506 31.776L145.397 74.2964L135.542 74.305ZM168.062 75.1138C165.658 75.116 163.618 74.6024 161.942 73.5733C160.309 72.5012 158.977 70.9994 157.944 69.0679C156.955 67.1364 156.223 64.8182 155.748 62.1133C155.273 59.3654 155.035 56.3383 155.032 53.0318C155.027 48.1793 155.475 44.1209 156.374 40.8566C157.316 37.5922 158.752 35.1432 160.683 33.5098C162.614 31.8333 165.082 30.9938 168.088 30.9912C170.407 30.9891 172.404 31.4812 174.08 32.4674C175.798 33.4106 177.195 34.8265 178.27 36.715C179.346 38.5605 180.142 40.8357 180.66 43.5406C181.177 46.2455 181.438 49.3585 181.441 52.8797C181.444 56.3151 181.189 59.4071 180.676 62.1558C180.163 64.9046 179.371 67.2456 178.299 69.1789C177.27 71.1122 175.897 72.5949 174.18 73.627C172.506 74.6161 170.467 75.1117 168.062 75.1138ZM168.122 69.5743C169.281 69.5733 170.333 69.0141 171.277 67.8968C172.263 66.7795 173.035 65.0182 173.591 62.6129C174.19 60.2077 174.488 57.0512 174.484 53.1435C174.481 49.4076 174.199 46.316 173.639 43.8688C173.121 41.4216 172.368 39.5972 171.38 38.3957C170.434 37.1513 169.317 36.5296 168.029 36.5307C166.869 36.5317 165.839 37.0694 164.938 38.1437C164.037 39.1751 163.309 40.8934 162.753 43.2987C162.239 45.7039 161.985 48.8818 161.988 52.8324C161.991 55.9242 162.143 58.5435 162.446 60.6903C162.791 62.7942 163.222 64.5115 163.739 65.8422C164.298 67.13 164.943 68.0741 165.674 68.6747C166.447 69.2752 167.263 69.5751 168.122 69.5743Z" fill="#03216E"/>
    <path d="M6.23777 18.634C5.30209 18.634 4.55512 18.4649 3.99686 18.1268C3.37569 17.773 3.06511 17.2501 3.06511 16.5582L3.06511 10.4841C2.6012 9.8315 2.36924 9.02949 2.36924 8.07808C2.36924 7.11881 2.6012 6.28928 3.06511 5.58949H4.86963C5.79745 5.58949 6.46186 5.88827 6.86287 6.48585C6.6663 6.70601 6.49332 6.98514 6.34392 7.32325C6.19453 7.66135 6.11983 7.9051 6.11983 8.05449C6.11983 8.19603 6.15521 8.30217 6.22598 8.37294C6.30461 8.44371 6.41469 8.47909 6.55622 8.47909C6.83142 7.38615 7.3543 6.58414 8.12486 6.07305C8.76175 5.64059 9.54804 5.42437 10.4837 5.42437C11.6474 5.42437 12.5595 5.67205 13.22 6.16741C13.4559 6.79644 13.5738 7.567 13.5738 8.47909C13.5738 9.38332 13.393 10.205 13.0313 10.9441C12.764 11.0856 12.3944 11.2075 11.9226 11.3097C11.4509 11.4041 10.9751 11.4513 10.4955 11.4513C10.0159 11.4513 9.58342 11.4198 9.19814 11.3569C8.82072 11.2861 8.54552 11.2232 8.37254 11.1682C8.30964 11.2311 8.27819 11.3215 8.27819 11.4395C8.27819 11.5574 8.35288 11.6478 8.50228 11.7107C8.65954 11.7658 8.91901 11.8287 9.2807 11.8994V17.8202C8.42365 18.3627 7.40934 18.634 6.23777 18.634ZM19.9319 13.3383C20.0263 13.3383 20.1285 13.299 20.2385 13.2204C20.1599 12.9609 20.1206 12.556 20.1206 12.0056V6.1792C20.9541 5.67598 21.9566 5.42437 23.1282 5.42437C23.7886 5.42437 24.3666 5.51479 24.8619 5.69563C25.3651 5.86862 25.7504 6.10057 26.0178 6.3915V12.5363C26.0178 13.7079 26.3008 14.4706 26.8669 14.8244C26.8748 14.8637 26.8787 14.9384 26.8787 15.0485V15.2608C26.8787 16.4088 26.576 17.2776 25.9706 17.8674C25.4202 18.4178 24.6614 18.693 23.6943 18.693C23.0888 18.693 22.5384 18.5554 22.0431 18.2802C21.5556 18.005 21.19 17.6039 20.9462 17.0771C20.6789 17.0771 20.5452 17.2069 20.5452 17.4663C20.5452 17.6472 20.6356 17.828 20.8165 18.0089C20.5649 18.2133 20.2621 18.3784 19.9083 18.5042C19.5545 18.6301 19.0316 18.693 18.3397 18.693C17.6556 18.693 16.9873 18.5514 16.3346 18.2684C15.5248 17.9224 14.9036 17.3916 14.4711 16.6761C13.9443 15.8269 13.6809 14.7497 13.6809 13.4445L13.6809 10.4841C13.2799 9.78433 13.0794 9.01376 13.0794 8.17244C13.0794 7.73998 13.1344 7.2918 13.2445 6.82789C13.3546 6.36398 13.5315 5.95118 13.7753 5.58949H16.37C17.345 5.58949 18.1077 5.82144 18.6581 6.28535C19.2164 6.7414 19.4955 7.43726 19.4955 8.37294V12.1943C19.4955 12.957 19.641 13.3383 19.9319 13.3383ZM32.7061 9.23392C32.5016 9.29683 32.3994 9.4187 32.3994 9.59955V9.65852C32.3994 9.69783 32.4033 9.72142 32.4112 9.72929C32.4977 9.72142 32.6117 9.71749 32.7532 9.71749H33.0363C33.9327 9.71749 34.7701 9.85509 35.5485 10.1303C36.3348 10.3976 36.9756 10.8301 37.471 11.4277C38.0214 12.1039 38.2966 12.957 38.2966 13.987C38.2966 15.5911 37.7422 16.8019 36.6336 17.6197C35.5249 18.4374 34.0428 18.8463 32.1871 18.8463C30.3315 18.8463 28.8769 18.5396 27.8232 17.9263C26.7775 17.313 26.2546 16.4127 26.2546 15.2254C26.2546 14.7851 26.3489 14.3841 26.5376 14.0224C26.7264 13.6529 26.9387 13.3934 27.1745 13.244C27.607 13.6057 28.2321 13.9202 29.0498 14.1875C29.8754 14.447 30.7482 14.5767 31.6682 14.5767C32.0377 14.5767 32.2225 14.4745 32.2225 14.2701C32.2225 14.1757 32.2107 14.0971 32.1871 14.0342C32.1321 14.0421 32.0652 14.046 31.9866 14.046H31.8569C30.19 14.046 28.8572 13.7158 27.8586 13.0553C26.7264 12.3083 26.1602 11.2547 26.1602 9.89441C26.1602 8.53413 26.6674 7.43333 27.6817 6.592C28.8061 5.66418 30.3511 5.20027 32.3169 5.20027C33.284 5.20027 34.1843 5.30249 35.0178 5.50693C35.8591 5.71136 36.5785 5.98263 37.1761 6.32073C37.3255 6.64311 37.4002 7.11881 37.4002 7.74784C37.4002 8.70711 37.1368 9.44229 36.61 9.95338C36.209 9.73322 35.7175 9.55237 35.1357 9.41084C34.5617 9.26144 34.0428 9.18675 33.5788 9.18675C33.1149 9.18675 32.824 9.20247 32.7061 9.23392ZM43.7347 13.6568C43.8133 13.7354 43.9077 13.7747 44.0177 13.7747C44.1907 13.7747 44.3087 13.6529 44.3716 13.4091C44.4345 13.1575 44.4659 12.6543 44.4659 11.8994V10.6964C44.4659 10.4841 44.4384 10.3347 44.3834 10.2482C44.3283 10.1617 44.2379 10.1185 44.1121 10.1185C43.9863 10.1185 43.8959 10.146 43.8408 10.2011V11.7815C43.8408 12.2533 43.8054 12.8784 43.7347 13.6568ZM44.2065 3.99726V5.04695C43.546 5.08626 42.9405 5.18848 42.3901 5.3536C41.8397 5.51086 41.5645 5.69563 41.5645 5.90793C41.5645 6.03374 41.6274 6.13596 41.7532 6.21458C42.6182 5.78999 43.5342 5.57769 44.5013 5.57769C46.2311 5.57769 47.6465 6.17527 48.7473 7.37043C49.8559 8.55772 50.4103 10.1067 50.4103 12.0174C50.4103 14.3291 49.7419 16.0707 48.4052 17.2423C47.1865 18.3116 45.5274 18.8463 43.428 18.8463C41.3365 18.8463 39.7954 18.4413 38.8047 17.6315C38.2621 17.1833 37.9909 16.6014 37.9909 15.8859V2.42861C38.3683 2.20845 38.8204 2.02761 39.3472 1.88608C39.8819 1.74454 40.4205 1.67378 40.963 1.67378C41.8673 1.67378 42.6142 1.85069 43.2039 2.20452C43.8723 2.62125 44.2065 3.21883 44.2065 3.99726ZM57.0042 18.8463C54.8262 18.8463 53.1082 18.2408 51.8501 17.03C50.5606 15.8112 49.9158 14.1443 49.9158 12.0292C49.9158 9.9062 50.5803 8.22355 51.9091 6.98121C53.1357 5.82537 54.6886 5.24745 56.5678 5.24745C58.4471 5.24745 59.9528 5.7664 61.085 6.8043C62.2252 7.83433 62.7952 9.10419 62.7952 10.6139C62.7952 11.9584 62.3274 12.9727 61.3917 13.6568C60.5268 14.3015 59.3473 14.6239 57.8534 14.6239C56.7369 14.6239 55.7933 14.392 55.0228 13.9281C54.9599 13.9752 54.9284 14.0617 54.9284 14.1875C54.9284 14.4234 55.239 14.6396 55.8602 14.8362C56.4813 15.0485 57.1851 15.1547 57.9713 15.1547C58.7655 15.1547 59.4849 15.0564 60.1297 14.8598C60.7823 14.6554 61.3052 14.4156 61.6983 14.1404C61.8871 14.3055 62.0364 14.6121 62.1465 15.0603C62.2645 15.5006 62.3234 15.9056 62.3234 16.2751C62.3234 16.6368 62.2881 16.9592 62.2173 17.2423C61.604 17.7612 60.975 18.1308 60.3302 18.3509C59.4181 18.6812 58.3095 18.8463 57.0042 18.8463ZM56.8509 10.8615C57.244 10.8615 57.4406 10.7121 57.4406 10.4134C57.4406 10.1303 57.2322 9.98876 56.8155 9.98876C56.3988 9.98876 56.159 10.2129 56.0961 10.661C56.3162 10.7947 56.5678 10.8615 56.8509 10.8615ZM56.5796 4.64594C55.4316 4.64594 54.4213 4.85431 53.5485 5.27104L56.4027 1.14303C57.0081 0.71844 57.6568 0.506143 58.3488 0.506143C59.0486 0.506143 59.6029 0.722372 60.0118 1.15483C60.4285 1.57942 60.6369 2.07085 60.6369 2.62912C60.6369 3.17952 60.4599 3.63163 60.1061 3.98546C59.8309 4.26066 59.4063 4.50441 58.8323 4.71671L58.4667 4.85824C57.8613 4.71671 57.2322 4.64594 56.5796 4.64594Z" fill="#03216E"/>
</svg>
